<svg width="250" height="150" viewBox="0 0 250 150" fill="none" xmlns="http://www.w3.org/2000/svg">
<rect width="250" height="150" fill="#F7F9F9"/>
<path d="M209.516 83.436C209.516 83.82 209.492 84.22 209.444 84.636H200.156C200.22 85.468 200.484 86.108 200.948 86.556C201.428 86.988 202.012 87.204 202.7 87.204C203.724 87.204 204.436 86.772 204.836 85.908H209.204C208.98 86.788 208.572 87.58 207.98 88.284C207.404 88.988 206.676 89.54 205.796 89.94C204.916 90.34 203.932 90.54 202.844 90.54C201.532 90.54 200.364 90.26 199.34 89.7C198.316 89.14 197.516 88.34 196.94 87.3C196.364 86.26 196.076 85.044 196.076 83.652C196.076 82.26 196.356 81.044 196.916 80.004C197.492 78.964 198.292 78.164 199.316 77.604C200.34 77.044 201.516 76.764 202.844 76.764C204.14 76.764 205.292 77.036 206.3 77.58C207.308 78.124 208.092 78.9 208.652 79.908C209.228 80.916 209.516 82.092 209.516 83.436ZM205.316 82.356C205.316 81.652 205.076 81.092 204.596 80.676C204.116 80.26 203.516 80.052 202.796 80.052C202.108 80.052 201.524 80.252 201.044 80.652C200.58 81.052 200.292 81.62 200.18 82.356H205.316Z" fill="black"/>
<path d="M193.886 86.868V90.348H191.798C190.31 90.348 189.15 89.988 188.318 89.268C187.486 88.532 187.07 87.34 187.07 85.692V80.364H185.438V76.956H187.07V73.692H191.174V76.956H193.862V80.364H191.174V85.74C191.174 86.14 191.27 86.428 191.462 86.604C191.654 86.78 191.974 86.868 192.422 86.868H193.886Z" fill="black"/>
<path d="M168.596 83.628C168.596 82.252 168.852 81.044 169.364 80.004C169.892 78.964 170.604 78.164 171.5 77.604C172.396 77.044 173.396 76.764 174.5 76.764C175.444 76.764 176.268 76.956 176.972 77.34C177.692 77.724 178.244 78.228 178.628 78.852V76.956H182.732V90.348H178.628V88.452C178.228 89.076 177.668 89.58 176.948 89.964C176.244 90.348 175.42 90.54 174.476 90.54C173.388 90.54 172.396 90.26 171.5 89.7C170.604 89.124 169.892 88.316 169.364 87.276C168.852 86.22 168.596 85.004 168.596 83.628ZM178.628 83.652C178.628 82.628 178.34 81.82 177.764 81.228C177.204 80.636 176.516 80.34 175.7 80.34C174.884 80.34 174.188 80.636 173.612 81.228C173.052 81.804 172.772 82.604 172.772 83.628C172.772 84.652 173.052 85.468 173.612 86.076C174.188 86.668 174.884 86.964 175.7 86.964C176.516 86.964 177.204 86.668 177.764 86.076C178.34 85.484 178.628 84.676 178.628 83.652Z" fill="black"/>
<path d="M166.407 86.868V90.348H164.318C162.83 90.348 161.67 89.988 160.838 89.268C160.006 88.532 159.59 87.34 159.59 85.692V80.364H157.958V76.956H159.59V73.692H163.694V76.956H166.382V80.364H163.694V85.74C163.694 86.14 163.791 86.428 163.983 86.604C164.174 86.78 164.494 86.868 164.942 86.868H166.407Z" fill="black"/>
<path d="M150.288 90.54C149.12 90.54 148.08 90.34 147.168 89.94C146.256 89.54 145.536 88.996 145.008 88.308C144.48 87.604 144.184 86.82 144.12 85.956H148.176C148.224 86.42 148.44 86.796 148.824 87.084C149.208 87.372 149.68 87.516 150.24 87.516C150.752 87.516 151.144 87.42 151.416 87.228C151.704 87.02 151.848 86.756 151.848 86.436C151.848 86.052 151.648 85.772 151.248 85.596C150.848 85.404 150.2 85.196 149.304 84.972C148.344 84.748 147.544 84.516 146.904 84.276C146.264 84.02 145.712 83.628 145.248 83.1C144.784 82.556 144.552 81.828 144.552 80.916C144.552 80.148 144.76 79.452 145.176 78.828C145.608 78.188 146.232 77.684 147.048 77.316C147.88 76.948 148.864 76.764 150 76.764C151.68 76.764 153 77.18 153.96 78.012C154.936 78.844 155.496 79.948 155.64 81.324H151.848C151.784 80.86 151.576 80.492 151.224 80.22C150.888 79.948 150.44 79.812 149.88 79.812C149.4 79.812 149.032 79.908 148.776 80.1C148.52 80.276 148.392 80.524 148.392 80.844C148.392 81.228 148.592 81.516 148.992 81.708C149.408 81.9 150.048 82.092 150.912 82.284C151.904 82.54 152.712 82.796 153.336 83.052C153.96 83.292 154.504 83.692 154.968 84.252C155.448 84.796 155.696 85.532 155.712 86.46C155.712 87.244 155.488 87.948 155.04 88.572C154.608 89.18 153.976 89.66 153.144 90.012C152.328 90.364 151.376 90.54 150.288 90.54Z" fill="black"/>
<path d="M135.239 76.788V80.196H140.735V83.364H135.239V87.06H141.455V90.348H131.135V73.5H141.455V76.788H135.239Z" fill="black"/>
<path d="M128.931 76.956L120.531 96.708H116.115L119.187 89.892L113.739 76.956H118.323L121.419 85.332L124.491 76.956H128.931Z" fill="black"/>
<path d="M111.58 73.5V90.348H107.476V80.244L103.708 90.348H100.396L96.604 80.22V90.348H92.5V73.5H97.348L102.076 85.164L106.756 73.5H111.58Z" fill="black"/>
<path d="M77.0639 66.1184L65.5554 57.6544C62.4186 55.3442 57.6034 55.4702 54.5864 57.9275L44.5764 66.1394C42.5784 67.7776 41 71.138 41 73.7842V88.2759C41 93.6315 45.1359 98 50.2308 98H71.7692C76.8641 98 81 93.6525 81 88.2969V74.0572C81 71.222 79.2617 67.7356 77.0639 66.1184ZM70.7502 79.9379C70.7502 80.757 70.1309 81.4081 69.3516 81.4081C68.5724 81.4081 67.953 80.757 67.953 79.9379V79.5599L62.5185 85.2725C62.2188 85.5876 61.8192 85.7346 61.3996 85.6926C61 85.6506 60.6204 85.3985 60.4006 85.0415L58.3626 81.8491L53.6074 86.8477C53.3277 87.1417 52.988 87.2678 52.6284 87.2678C52.2687 87.2678 51.9091 87.1207 51.6494 86.8477C51.1099 86.2807 51.1099 85.3565 51.6494 84.7685L57.6034 78.5098C57.9031 78.1947 58.3027 78.0477 58.7222 78.0897C59.1418 78.1317 59.5214 78.3627 59.7412 78.7408L61.7792 81.9331L65.995 77.5016H65.6353C64.8561 77.5016 64.2367 76.8506 64.2367 76.0315C64.2367 75.2124 64.8561 74.5613 65.6353 74.5613H69.3516C69.5315 74.5613 69.7113 74.6033 69.8911 74.6663C70.2308 74.8133 70.5105 75.1074 70.6503 75.4644C70.7303 75.6534 70.7502 75.8424 70.7502 76.0315V79.9379Z" fill="#DEA82B"/>
</svg>
